<?xml version="1.0" standalone="no"?>
<!DOCTYPE svg PUBLIC "-//W3C//DTD SVG 1.1//EN" "http://www.w3.org/Graphics/SVG/1.1/DTD/svg11.dtd" >
<svg xmlns="http://www.w3.org/2000/svg">
<metadata>
<json>
<![CDATA[
{
	"fontFamily": "icomoon",
	"majorVersion": 1,
	"minorVersion": 0,
	"version": "Version 1.0",
	"fontId": "icomoon",
	"psName": "icomoon",
	"subFamily": "Regular",
	"fullName": "icomoon",
	"description": "Font generated by IcoMoon."
}
]]>
</json>
</metadata>
<defs>
<font id="icomoon" horiz-adv-x="1024">
<font-face units-per-em="1024" ascent="960" descent="-64" />
<missing-glyph horiz-adv-x="1024" />
<glyph unicode="&#x20;" horiz-adv-x="512" d="" />
<glyph unicode="&#xe906;" glyph-name="THDashboard" data-tags="IconosTHMesa de trabajo 1" d="M141.28 818.24h741.44c33.844 0 61.28-27.436 61.28-61.28v-0.8c0-33.844-27.436-61.28-61.28-61.28h-741.44c-33.844 0-61.28 27.436-61.28 61.28v0.8c0 33.844 27.436 61.28 61.28 61.28zM141.76 509.76h740.48c34.109 0 61.76-27.651 61.76-61.76v0.16c0-34.109-27.651-61.76-61.76-61.76h-740.48c-34.109 0-61.76 27.651-61.76 61.76v-0.16c0 34.109 27.651 61.76 61.76 61.76zM141.76 201.12h740.48c34.109 0 61.76-27.651 61.76-61.76v0.16c0-34.109-27.651-61.76-61.76-61.76h-740.48c-34.109 0-61.76 27.651-61.76 61.76v-0.16c0 34.109 27.651 61.76 61.76 61.76zM234.72 880h159.68c34.551 0 62.56-28.009 62.56-62.56v-121.76c0-34.551-28.009-62.56-62.56-62.56h-159.68c-34.551 0-62.56 28.009-62.56 62.56v121.76c0 34.551 28.009 62.56 62.56 62.56zM391.84 262.88h159.68c34.551 0 62.56-28.009 62.56-62.56v-121.76c0-34.551-28.009-62.56-62.56-62.56h-159.68c-34.551 0-62.56 28.009-62.56 62.56v121.76c0 34.551 28.009 62.56 62.56 62.56zM627.52 571.36h159.68c34.551 0 62.56-28.009 62.56-62.56v-121.76c0-34.551-28.009-62.56-62.56-62.56h-159.68c-34.551 0-62.56 28.009-62.56 62.56v121.76c0 34.551 28.009 62.56 62.56 62.56z" />
<glyph unicode="&#xe907;" glyph-name="THApl" data-tags="IconosTHMesa de trabajo 3" d="M892.8 700.48c-2.803-8.133-6.046-15.107-9.903-21.678-11.057-16.722-23.537-33.522-36.017-50.162-2.084-2.247-3.363-5.267-3.363-8.585 0-2.786 0.901-5.361 2.428-7.45 7.015-15.164 13.415-30.684 19.175-46.364 1.395-5.469 6.094-9.517 11.799-9.918 20.841-3.202 41.641-6.882 62.601-10.402 19.951-2.234 35.462-18.517 36.476-38.622q0.004-59.298 0.004-118.978c-0.801-20.098-15.967-36.42-35.471-39.017-21.009-3.543-41.809-7.063-62.769-10.263-6.092-0.416-11.068-4.74-12.461-10.466-5.619-16.094-12.179-32.094-19.219-46.494-1.224-1.85-1.953-4.121-1.953-6.562 0-3.003 1.103-5.748 2.926-7.853 12.467-15.985 24.307-33.745 36.467-50.545 5.975-7.272 9.596-16.673 9.596-26.921 0-12.458-5.352-23.665-13.883-31.449q-38.593-39.070-77.633-77.63c-7.94-8.307-19.107-13.47-31.48-13.47-9.92 0-19.065 3.319-26.385 8.908-17.494 12.243-34.774 25.043-52.534 37.043-1.959 1.081-4.295 1.717-6.779 1.717-1.64 0-3.215-0.277-4.681-0.787-15.9-6.21-31.9-13.57-47.9-19.65-5.489-1.319-9.587-5.959-10.077-11.631-3.203-20.849-6.723-41.809-10.243-62.609-2.334-20.701-19.743-36.642-40.875-36.642-0.142 0-0.284 0.001-0.426 0.002q-58.218 0-116.778 0c-20.488 0.448-37.281 15.698-40.134 35.457-3.546 21.023-7.066 41.823-10.266 62.783-0.395 6.051-4.647 11.009-10.305 12.459-19.051 6.699-34.373 13.181-49.25 20.433 0.888-0.065-1.372 0.615-3.791 0.615-3.351 0-6.398-1.304-8.66-3.433-15.994-12.154-33.274-23.834-49.914-35.834-7.293-5.98-16.718-9.605-26.989-9.605-12.408 0-23.58 5.29-31.384 13.737q-39.066 38.589-77.626 77.629c-8.564 7.813-13.916 19.021-13.916 31.479 0 10.248 3.622 19.65 9.656 26.996 12.261 17.206 24.421 34.486 36.901 51.446 1.626 1.848 2.618 4.288 2.618 6.96 0 2.109-0.618 4.073-1.683 5.722-7.015 15.959-13.895 31.959-19.655 47.959-1.458 5.793-6.408 10.092-12.432 10.557-20.848 3.203-41.808 6.723-62.608 10.243-19.758 2.316-35.074 18.514-35.997 38.47q-0.003 59.93-0.003 119.93c0.826 19.755 15.579 35.827 34.655 38.692 20.705 3.548 41.185 7.228 61.825 10.108 7.073 0.447 12.869 5.428 14.536 12.050 6.364 18.202 12.577 32.892 19.551 47.14 0.332-0.516 1.207 2.024 1.207 4.768 0 3.365-1.315 6.423-3.459 8.688-12.475 15.994-24.315 33.754-36.475 50.554-5.638 7.114-9.045 16.22-9.045 26.121 0 12.073 5.065 22.963 13.186 30.661q38.899 39.538 78.419 78.258c7.896 8.173 18.955 13.248 31.199 13.248 10.051 0 19.304-3.42 26.658-9.16 17.184-12.088 34.464-24.408 51.424-36.888 1.879-1.66 4.362-2.673 7.083-2.673 2.054 0 3.973 0.578 5.604 1.58 15.953 7.173 31.953 14.053 47.953 19.973 5.422 1.514 9.397 6.247 9.758 11.962 3.202 20.838 6.722 41.798 10.242 62.598 2.409 20.537 19.709 36.321 40.696 36.321 0.093 0 0.185 0 0.278-0.001q58.706 0 117.746 0c20.475-0.564 37.189-15.954 39.817-35.79 3.543-20.69 7.063-41.17 10.103-61.81 0.337-6.463 4.887-11.775 10.941-13.26 16.099-5.46 30.659-11.86 45.539-18.74 2.053-1.502 4.629-2.403 7.415-2.403 3.318 0 6.338 1.279 8.593 3.371 15.992 12.473 33.752 24.313 50.552 36.473 7.215 5.757 16.467 9.238 26.532 9.238 12.231 0 23.261-5.14 31.049-13.378 26.259-25.94 52.339-52.18 78.419-78.26 8.039-8.561 12.978-20.116 12.978-32.825 0-1.456-0.065-2.896-0.192-4.319zM202.56 448c0.001-170.898 138.542-309.439 309.44-309.439s309.44 138.541 309.44 309.44c0 170.899-138.541 309.44-309.44 309.44-0.338 0-0.675-0.001-1.012-0.002-170.287-0.907-308.067-139.023-308.427-309.405zM641.44 528c-2.88-19.84-4-37.76-19.36-50.4-2.096-2.403-3.695-5.297-4.602-8.483-10.723-26.738-26.318-49.317-45.865-67.75-14.764-16.020-35.724-25.967-59.008-25.967-22.51 0-42.849 9.297-57.386 24.261-20.663 18.966-36.985 42.275-47.568 68.514-2.106 5.423-4.555 8.95-7.633 11.808-9.734 11.324-15.649 26.142-15.649 42.342 0 10.581 2.524 20.573 7.002 29.406 1.306 2.312 2.19 5.503 2.229 8.897 1.6 14.252 2.4 28.652 4.64 42.892 6.56 43.2 37.76 64 74.72 75.52 12.037 4.077 25.902 6.43 40.316 6.43 26.707 0 51.527-8.078 72.15-21.925 25.396-16.041 42.657-43.96 44.008-75.993 1.126-8.192 0.966-16.192 2.406-24.192 1.655-6.447 3.406-11.779 5.455-16.96 0.945-5.6 2.705-12.64 4.145-18.4zM432 371.68c7.288-12.229 19.68-20.767 34.161-22.694 13.56-3.549 28.853-5.572 44.618-5.572 19.644 0 38.554 3.141 56.256 8.948 10.076 1.82 19.468 8.795 24.867 18.329 1.059 0.189 1.859 0.189 2.179 0.189 27.010-19.402 59.581-32.82 94.889-37.636 17.634-1.681 32.481-7.815 44.665-17.228 2.854-1.744 4.853-5.070 4.853-8.863 0-2.687-1.004-5.14-2.657-7.004-48.936-72.186-130.596-119.005-223.19-119.005s-174.255 46.819-222.598 118.075c-2.536 2.928-3.729 5.644-3.729 8.639 0 4.196 2.341 7.845 5.788 9.713 12.251 8.769 27.12 14.543 43.235 16.004 36.925 4.829 69.643 18.389 97.263 38.522z" />
<glyph unicode="&#xe908;" glyph-name="THDO" data-tags="IconosTHMesa de trabajo 4" d="M496 336v131.68c5.001 5.113 11.97 8.283 19.68 8.283s14.679-3.17 19.675-8.278l0.005-131.685 106.24-65.76c2.39-3.509 3.817-7.841 3.817-12.507 0-12.371-10.029-22.4-22.4-22.4-0.386 0-0.769 0.010-1.15 0.029l-109.867 65.918-106.24-54.24s-35.36-3.84-23.68 30.88zM462.080 691.040l30.88-96h8c0 22.88 0 45.6 0.96 68.48 0 4.8 0 13.44 1.44 13.6 6.223 0.929 13.405 1.46 20.711 1.46 3.522 0 7.015-0.123 10.475-0.366 1.294 0.026 3.694-7.174 3.694-11.174 0-24 0-48 0-71.84l6.72-1.44 32 96.96c38.56-9.92 77.28-18.56 115.040-30.080 10.199-3.897 18.094-11.845 21.835-21.823 5.594-22.030 9.846-47.907 11.974-74.384 0.111-6.193-8.369-14.673-14.289-15.793-35.531-9.315-79.829-17.784-124.965-23.574-25.951-2.791-49.562-4.049-73.466-4.049-63.020 0-123.998 8.741-181.788 25.078-9.325 0.345-20.157 12.108-20.157 26.4 0 2.848 0.43 5.595 1.229 8.18 7.948 73.244 8.748 75.004 81.068 93.564 22.56 5.6 44.32 10.88 68.64 16.8zM165.76 137.6l30.88-96h7.36c0 22.56 1.28 45.12 2.080 67.68-0.065 1.028-0.102 2.229-0.102 3.439 0 4.452 0.504 8.787 1.457 12.949 4.585 0.213 9.975 0.556 15.445 0.556s10.86-0.343 16.15-1.009c0.426-3.953 1.032-8.566 1.032-13.321 0-0.92-0.023-1.834-0.068-2.742 0.805-22.272 1.445-44.672 2.085-67.072h7.040l32 97.28c39.52-10.24 80-19.36 118.4-32 9.814-4.759 17.107-13.413 19.94-23.899 5.012-21.402 8.5-46.191 9.779-71.562 0.041-5.979-9.239-15.099-15.959-17.019-39.398-9.655-88.374-18.263-138.239-23.946-23.295-2.323-43.651-3.343-64.246-3.343-56.948 0-112.073 7.801-164.367 22.392-37.468 11.298-30.588 3.458-29.148 46.978 0 7.040 2.080 14.080 2.88 20.96 0.252 29.293 22.452 53.323 50.943 56.457 31.777 5.943 62.497 15.223 94.657 23.223zM825.44 41.12c5.6 16 11.52 31.040 16 46.72s9.44 32 14.88 50.24c40.16-10.24 80-19.36 117.92-31.040 9.445-3.998 16.631-11.759 19.77-21.353 5.298-21.856 9.434-47.741 11.623-74.179 0.127-6.387-8.193-14.707-13.953-15.987-34.526-9.141-77.51-17.44-121.319-23.109-27.074-3.060-52.189-4.479-77.635-4.479-62.882 0-123.739 8.67-181.44 24.88-13.526 4.149-21.686 12.309-17.846 30.869 2.915 23.12 6.562 43.005 11.191 62.51 2.942 7.031 10.869 15.741 21.034 20.425 38.015 11.945 76.895 20.585 116.255 30.665l32-97.44 6.4 1.12c0 24.32 0 48 0 72.96 0 3.52 1.44 9.76 2.88 9.92 10.24 1.28 20.48 1.28 30.88 1.76 0-6.88 0-13.76 0.8-20.48 1.44-21.44 2.88-42.88 4.48-64zM605.44 857.76c-0.187-41.434-12.894-79.863-34.53-111.743-31.55-41.377-73.47-41.377-104.030 1.503-21.144 29.65-33.806 66.619-33.806 106.545 0 9.092 0.657 18.030 1.925 26.771 5.161 42.204 42.761 65.724 94.761 63.004 0.055 0 0.12 0 0.184 0 41.122 0 74.583-32.797 75.654-73.661 0.002-4.739-0.158-8.579-0.158-12.419zM885.28 291.2c-1.309-40.168-15.881-76.698-39.452-105.599-27.268-31.681-65.188-31.681-91.908 0.319-24.994 30.483-40.144 69.874-40.144 112.804 0 12.17 1.217 24.055 3.537 35.54 6.687 39.496 54.207 62.856 102.367 53.896 45.92-8.48 66.88-36.16 65.6-96.96zM136.8 317.12c-0.023 0.655-0.037 1.424-0.037 2.196 0 27.544 16.976 51.124 41.037 60.846 13.354 7.257 28.74 11.434 45.103 11.434 23.086 0 44.229-8.315 60.599-22.113 12.861-12.232 21.704-28.849 24.136-47.481 0.892-7.017 1.377-14.668 1.377-22.432 0-38.517-11.928-74.248-32.292-103.7-31.602-45.951-76.882-45.311-108.722 1.569-21.44 31.68-29.28 68.16-31.2 119.68z" />
<glyph unicode="&#xe909;" d="M226.4 909.76c14.91-1.812 27.999-4.282 40.784-7.517 33.575-10.861 59.069-43.787 59.069-82.668 0-0.526-0.005-1.050-0.014-1.574 1.393-10.539 3.242-19.811 5.637-28.862 0.81-2.802 1.479-7.834 1.479-13.022 0-14.239-5.041-27.301-13.436-37.499-2.458-2.904-4.652-6.326-6.362-10.018-10.094-23.981-24.898-43.917-43.41-59.613-12.057-10.882-27.818-17.426-45.106-17.426s-33.049 6.544-44.938 17.291c-18.553 15.563-33.289 35.174-42.916 57.504-2.747 5.692-5.687 9.705-9.181 13.16-7.42 9.28-11.905 21.181-11.905 34.13 0 8.841 2.090 17.193 5.804 24.59 1.116 1.9 1.971 4.506 2.25 7.282 1.927 11.282 2.887 22.642 5.287 33.682 9.162 39.040 43.367 67.778 84.403 68.479 4.237 0.001 8.557 0.001 12.877 0.001z" />
<glyph unicode="&#xe90a;" d="M178.080 488.96c-43.84 3.2-86.4 6.24-125.44 25.28-15.838 5.902-26.914 20.896-26.914 38.476 0 6.18 1.369 12.041 3.82 17.295 3.816 11.826 7.988 21.936 12.822 31.658 12.897 28.41 42.352 48.735 76.554 48.735 0.323 0 0.646-0.002 0.968-0.005 10.191 0 22.031 4.8 30.351 1.12s11.52-16 17.44-23.040 12.16-14.88 18.4-22.080 12.16-13.76 18.88-21.28c-16.247-5.74-27.679-20.966-27.679-38.861 0-2.551 0.232-5.048 0.677-7.471 0.922-16.228 0.122-32.548 0.122-49.828z" />
<glyph unicode="&#xe90b;" d="M245.28 585.92h-29.6c-2.080 0-4.16 0-7.68 0 3.754 7.022 5.96 15.359 5.96 24.212 0 10.105-2.874 19.539-7.848 27.529l38.688-0.221c-4.4-7.244-7.004-16.001-7.004-25.367 0-9.689 2.787-18.728 7.604-26.357z" />
<glyph unicode="&#xe90c;" d="M423.52 566.72c-4.38 13.793-9.261 25.495-15.015 36.674-11.642 25.549-37.308 44.374-67.591 46.669-0.275 0.017-0.276 0.017-0.277 0.017-6.719 0-13.316 0.524-19.751 1.532-1.873 0.887-4.865 1.453-7.989 1.453-10.418 0-19.364-6.302-23.234-15.301-13.943-19.631-27.697-36.635-42.386-52.774l0.403 0.45c-5.931-2.367-12.805-3.739-20-3.739s-14.069 1.372-20.375 3.87l-39.625 7.869-40-32 48-72c14.703-1.979 31.7-3.109 48.96-3.109s34.257 1.13 50.919 3.32 49.561 4.75 73.881 10.030c20.413 4.412 38.425 10.808 55.287 19.174 12.109 5.449 21.323 18.757 21.323 34.218 0 4.908-0.928 9.599-2.619 13.907z" />
<glyph unicode="&#xe90d;" d="M794.56 909.76c14.91-1.812 27.999-4.282 40.784-7.517 33.575-10.861 59.069-43.787 59.069-82.668 0-0.526-0.005-1.050-0.014-1.574 1.393-10.539 3.242-19.811 5.637-28.862 0.786-2.758 1.441-7.739 1.441-12.874 0-14.307-5.089-27.426-13.556-37.644-2.461-2.907-4.654-6.33-6.365-10.022-10.094-23.981-24.898-43.917-43.41-59.613-12.057-10.882-27.818-17.426-45.106-17.426s-33.049 6.544-44.938 17.291c-18.83 15.417-33.824 34.925-43.711 57.202-2.758 5.867-5.758 10.043-9.35 13.625-7.417 9.277-11.901 21.178-11.901 34.127 0 8.841 2.090 17.193 5.804 24.59 1.116 1.9 1.971 4.506 2.25 7.282 1.927 11.282 2.887 22.642 5.287 33.682 9.162 39.040 43.367 67.778 84.403 68.479 4.237 0.001 8.557 0.001 12.877 0.001z" />
<glyph unicode="&#xe90e;" d="M746.24 488.96c-43.84 3.2-86.4 6.24-125.44 25.28-15.838 5.902-26.914 20.896-26.914 38.476 0 6.18 1.369 12.041 3.82 17.295 3.816 11.826 7.988 21.936 12.822 31.658 12.931 28.324 42.342 48.576 76.483 48.576 0.348 0 0.696-0.002 1.043-0.006 10.187 0.001 22.027 4.801 30.347 1.121s11.52-16 17.44-23.040 12.16-14.88 18.4-22.080 12.16-13.76 18.88-21.28c-16.247-5.74-27.679-20.966-27.679-38.861 0-2.551 0.232-5.048 0.677-7.471 0.762-16.068 0.122-32.388 0.122-49.668z" />
<glyph unicode="&#xe90f;" d="M813.44 585.92h-29.44c-2.080 0-4.16 0-7.68 0 3.754 7.022 5.96 15.359 5.96 24.212 0 10.105-2.874 19.539-7.848 27.529l38.688-0.221c-4.448-7.275-7.082-16.079-7.082-25.498 0-9.635 2.756-18.626 7.523-26.229z" />
<glyph unicode="&#xe910;" d="M992 566.72c-4.38 13.793-9.261 25.495-15.015 36.674-11.642 25.549-37.308 44.374-67.591 46.669-0.275 0.017-0.276 0.017-0.277 0.017-6.719 0-13.316 0.524-19.751 1.532-1.873 0.887-4.865 1.453-7.989 1.453-10.418 0-19.364-6.302-23.234-15.301-13.991-19.758-27.8-36.867-42.553-53.102l0.41 0.458c-5.931-2.367-12.805-3.739-20-3.739s-14.069 1.372-20.375 3.87l-39.625 7.869-40-32 48-72c14.703-1.979 31.7-3.109 48.96-3.109s34.257 1.13 50.919 3.32 49.561 4.75 73.881 10.030c20.413 4.412 38.425 10.808 55.287 19.174 12.241 5.395 21.566 18.77 21.566 34.324 0 4.989-0.959 9.753-2.703 14.119z" />
<glyph unicode="&#xe911;" d="M506.24 780.64c21.009-2.622 39.411-6.156 57.383-10.764 49.497-15.316 79.897-58.996 83.097-118.516 1.932-14.954 4.51-28.027 7.856-40.788 1.181-4.013 2.145-11.179 2.145-18.57 0-19.967-7.034-38.292-18.759-52.631-3.476-4.105-6.579-8.949-8.998-14.175-14.24-33.851-35.141-61.99-61.284-84.131-16.981-15.326-39.175-24.543-63.521-24.543s-46.54 9.216-63.282 24.351c-26.074 21.911-46.789 49.503-60.335 80.912-3.879 8.277-8.111 14.145-13.179 19.171-10.765 13.198-17.284 30.22-17.284 48.766 0 12.485 2.955 24.28 8.203 34.724 1.574 2.695 2.773 6.389 3.149 10.323 2.569 16.112 4.009 32.112 7.529 48.112 13.067 54.763 61.136 95.017 118.772 95.999 6.028 0.001 12.108 0.001 18.188 0.001z" />
<glyph unicode="&#xe912;" d="M503.52 400c-27.91 0.593-53.32 10.834-73.139 27.506-28.023 23.343-50.328 52.936-64.845 86.669-3.069 6.633-6.23 11.021-10.014 14.782-13.385 15.914-21.517 36.629-21.517 59.244 0 15.854 3.996 30.774 11.036 43.808s-0.242 2.871 0.558 3.991c0.96 5.6 1.76 11.36 2.56 16.96 1.44 10.24 2.88 20.8 5.12 32 13.76 62.56 64.96 104.32 133.44 109.12h5.12v2.56h16l16-2.56c15.050-1.853 28.493-4.659 41.512-8.458 58.648-17.622 93.688-65.622 97.528-133.302 0.784-8.296 2.197-15.86 4.22-23.171 0.9-3.869 2.020-8.669 2.82-13.469 1.797-7.028 2.829-15.097 2.829-23.406 0-24.117-8.69-46.204-23.11-63.301-2.545-3.042-4.846-6.676-6.636-10.593-15.214-36.164-37.702-66.301-65.843-89.926-19.997-17.171-45.52-27.698-73.482-28.451zM494.56 761.6h-5.44c-50.851-0.278-93.409-35.45-104.966-82.776-2.234-10.024-3.514-19.464-4.954-29.384-0.8-5.92-1.6-11.84-2.56-17.76-0.747-6.474-2.852-12.333-6.024-17.461-3.128-7.151-5.009-15.7-5.009-24.689 0-13.994 4.56-26.923 12.275-37.383 6.299-6.12 11.654-13.469 15.669-21.599 13.19-31.012 32.396-56.685 56.382-76.857 14.219-13.264 32.969-21.255 53.587-21.255s39.368 7.991 53.324 21.044c24.473 20.778 43.807 46.941 56.259 76.699 3.739 8.43 7.645 14.54 12.275 20.018 9.384 11.399 15.133 26.299 15.133 42.541 0 6.166-0.829 12.139-2.38 17.813 0.11 3.848-1.65 8.008-2.61 12.328-2.228 7.987-3.927 17.414-4.759 27.089-3.081 54.191-29.641 91.471-75.081 105.391-9.79 2.881-21.559 5.296-33.618 6.77l-7.182 1.070-8.96-0.96h-11.36z" />
<glyph unicode="&#xe913;" d="M438.24 187.68c-61.76 4.64-121.76 8.64-176 35.68-22.024 8.426-37.379 29.387-37.379 53.934 0 8.822 1.983 17.181 5.529 24.655 5.406 16.659 11.311 30.895 18.147 44.584 18.162 39.947 59.592 68.516 107.694 68.516 0.538 0 1.075-0.004 1.611-0.011 14.319 0.001 30.959 6.721 42.639 1.601s16-21.6 24.64-32 16.96-20.96 25.76-32 17.28-19.36 26.72-30.080c-30.72-11.84-39.52-35.040-38.080-64.96-0.32-22.56-1.28-45.44-1.28-69.92z" />
<glyph unicode="&#xe914;" d="M454.24 170.56l-19.52 1.44c-60.48 4.48-123.2 9.12-180.32 37.12-27.737 10.86-47.023 37.385-47.023 68.414 0 10.554 2.231 20.587 6.248 29.653 5.667 17.414 11.896 32.39 19.111 46.786 20.471 45.543 67.392 78.031 121.9 78.031 0.367 0 0.734-0.001 1.1-0.004 1.784-0.11 3.937-0.173 6.104-0.173s4.319 0.063 6.455 0.187c4.559 1.307 10.133 2.065 15.884 2.065 7.322 0 14.358-1.23 20.911-3.494 10.355-5.996 18.779-15.246 23.727-26.383 2.395-4.513 4.621-8.017 7.056-11.359 7.328-9.483 15.808-19.243 23.808-28.683l1.28-1.44c5.76-6.72 11.68-13.28 17.76-20.16l24-26.88-21.6-8.32c-21.12-8-29.12-22.4-27.68-49.28 0.8-16 0-32 0-48 0-7.36 0-14.72 0-22.24zM388 402.72c-5.135-0.215-9.976-0.788-14.696-1.699-4.275-0.865-10.149-1.606-16.127-1.963-0.869-0.009-1.449-0.005-2.031-0.005-41.918 0-77.99-25.031-94.084-60.961-5.766-11.814-11.192-25.323-15.656-39.263-10.046-30.99-2.846-48.11 23.874-61.070 48-23.2 99.2-28.64 153.92-32q0 2.72 0 5.44c0 16 0 32 0 46.72-0.433 3.050-0.68 6.572-0.68 10.152 0 24.253 11.336 45.858 28.999 59.805l-13.119 15.322-1.28 1.44c-8.32 9.76-17.12 19.84-25.12 30.4-3.004 4.081-5.972 8.736-8.631 13.585-2.8 5.772-5.905 10.156-9.617 13.944-0.952 0.268-2.055 0.427-3.195 0.427-0.906 0-1.788-0.1-2.637-0.291z" />
<glyph unicode="&#xe915;" d="M532.8 324.32h-41.76c-2.88 0-5.76 0-10.72 0.96 5.326 9.917 8.456 21.7 8.456 34.213 0 14.219-4.041 27.494-11.037 38.739l54.581-0.312c-6.44-10.366-10.258-22.944-10.258-36.414 0-13.79 4.001-26.645 10.906-37.468z" />
<glyph unicode="&#xe916;" d="M508.48 308.32h-25.28l-26.4 2.56 8.96 20.32c4.501 7.992 7.152 17.544 7.152 27.716 0 11.385-3.322 21.995-9.049 30.912l-14.583 24.092h109.12l-12.16-23.36c-5.323-8.215-8.488-18.258-8.488-29.040s3.165-20.825 8.616-29.251l14.432-23.949h-52.32zM502.24 340.32h6.4c-1.747 6.238-2.751 13.402-2.751 20.8s1.004 14.562 2.884 21.362l-7.013-0.562c1.786-6.528 2.811-14.023 2.811-21.758 0-7.040-0.85-13.882-2.453-20.429z" />
<glyph unicode="&#xe917;" d="M784 297.28c-6.175 19.468-13.063 35.99-21.186 51.771-16.534 35.551-52.427 61.724-94.74 65.005-0.85 0.020-1.388 0.018-1.927 0.018-9.227 0-18.29 0.7-27.139 2.051-2.49 1.128-6.508 1.853-10.694 1.853-14.549 0-27.055-8.747-32.546-21.269-19.638-27.635-39.009-51.576-59.696-74.3l0.567 0.632c-8.352-3.326-18.031-5.255-28.16-5.255s-19.808 1.929-28.689 5.439l-55.791 11.016-56-44.8 67.52-101.44c22.036-3.154 47.484-4.955 73.354-4.955 22.755 0 45.184 1.393 67.207 4.099s69.84 6.616 104.24 14.136c28.774 6.244 54.16 15.286 77.921 27.105 17.009 7.684 29.945 26.397 29.945 48.131 0 7.497-1.539 14.634-4.319 21.113z" />
<glyph unicode="&#xe918;" d="M503.2 167.040c-1.273-0.013-2.777-0.021-4.283-0.021-23.62 0-46.803 1.869-69.41 5.468l-4.386 0.793-80 119.36 74.56 59.36 67.68-14.080c6.033-2.15 12.991-3.392 20.24-3.392s14.207 1.242 20.675 3.526l15.565 17.786c13.698 15.002 26.635 31.343 38.381 48.56 9.511 18.485 26.782 29.921 46.723 29.921 5.432 0 10.666-0.849 15.577-2.421 3.268-0.622 7.441-1.035 11.711-1.035 0.481 0 0.961 0.005 1.439 0.016 3.609-0.001 7.289-0.001 10.969-0.001 48.549-3.483 89.436-33.095 108.944-74.722 8.257-15.714 15.736-33.34 21.725-51.64 3.811-10.041 5.623-18.865 5.623-28.112 0-28.056-16.677-52.216-40.658-63.11-23.424-11.667-50.148-21.152-78.13-27.274-33.797-7.019-71.082-11.818-109.114-13.787l-1.83-1.196c-21.575-2.547-46.567-4-71.898-4-0.036 0-0.072 0-0.107 0zM444.48 202.88c19.020-2.373 41.032-3.728 63.36-3.728s44.34 1.354 65.959 3.985l4.921 0.542c18.4 1.76 70.56 7.68 97.76 13.44 27.39 5.966 51.544 14.566 74.166 25.788 11.604 5.147 20.814 18.389 20.814 33.781 0 5.728-1.275 11.158-3.558 16.022l0.097-0.231c-5.851 18.704-12.417 34.595-20.183 49.771-14.115 31.068-45.618 54.010-82.721 56.453l-8.936 0.016c-1.234-0.060-2.681-0.095-4.135-0.095-5.55 0-10.983 0.5-16.257 1.458-11.448 2.957-17.048 1.677-26.168-12.723-13.641-20.183-27.526-37.778-42.575-54.293-5.745-6.667-11.825-13.547-17.745-20.747l-4.8-5.76h-5.44c-9.524-3.515-20.525-5.549-32-5.549s-22.475 2.034-32.66 5.76l-47.34 9.229-39.040-32z" />
<glyph unicode="&#xe919;" d="M506.24 780.64c21.009-2.622 39.411-6.156 57.383-10.764 49.497-15.316 79.897-58.996 83.097-118.516 1.932-14.954 4.51-28.027 7.856-40.788 1.181-4.013 2.145-11.179 2.145-18.57 0-19.967-7.034-38.292-18.759-52.631-3.476-4.105-6.579-8.949-8.998-14.175-14.24-33.851-35.141-61.99-61.284-84.131-16.981-15.326-39.175-24.543-63.521-24.543s-46.54 9.216-63.282 24.351c-26.074 21.911-46.789 49.503-60.335 80.912-3.879 8.277-8.111 14.145-13.179 19.171-10.765 13.198-17.284 30.22-17.284 48.766 0 12.485 2.955 24.28 8.203 34.724 1.574 2.695 2.773 6.389 3.149 10.323 2.569 16.112 4.009 32.112 7.529 48.112 13.067 54.763 61.136 95.017 118.772 95.999 6.028 0.001 12.108 0.001 18.188 0.001z" />
<glyph unicode="&#xe91a;" d="M438.24 187.68c-61.76 4.64-121.76 8.64-176 35.68-22.024 8.426-37.379 29.387-37.379 53.934 0 8.822 1.983 17.181 5.529 24.655 5.406 16.659 11.311 30.895 18.147 44.584 18.162 39.947 59.592 68.516 107.694 68.516 0.538 0 1.075-0.004 1.611-0.011 14.319 0.001 30.959 6.721 42.639 1.601s16-21.6 24.64-32 16.96-20.96 25.76-32 17.28-19.36 26.72-30.080c-30.72-11.84-39.52-35.040-38.080-64.96-0.32-22.56-1.28-45.44-1.28-69.92z" />
<glyph unicode="&#xe91b;" d="M532.8 324.32h-41.76c-2.88 0-5.76 0-10.72 0.96 5.326 9.917 8.456 21.7 8.456 34.213 0 14.219-4.041 27.494-11.037 38.739l54.581-0.312c-6.44-10.366-10.258-22.944-10.258-36.414 0-13.79 4.001-26.645 10.906-37.468z" />
<glyph unicode="&#xe91c;" d="M784 297.28c-6.175 19.468-13.063 35.99-21.186 51.771-16.534 35.551-52.427 61.724-94.74 65.005-0.85 0.020-1.388 0.018-1.927 0.018-9.227 0-18.29 0.7-27.139 2.051-2.49 1.128-6.508 1.853-10.694 1.853-14.549 0-27.055-8.747-32.546-21.269-19.638-27.635-39.009-51.576-59.696-74.3l0.567 0.632c-8.352-3.326-18.031-5.255-28.16-5.255s-19.808 1.929-28.689 5.439l-55.791 11.016-56-44.8 67.52-101.44c22.036-3.154 47.484-4.955 73.354-4.955 22.755 0 45.184 1.393 67.207 4.099s69.84 6.616 104.24 14.136c28.774 6.244 54.16 15.286 77.921 27.105 17.009 7.684 29.945 26.397 29.945 48.131 0 7.497-1.539 14.634-4.319 21.113z" />
<glyph unicode="&#xe91d;" d="M728.48 206.56c6.363 10.562 17.771 17.517 30.802 17.517 3.68 0 7.23-0.555 10.572-1.585 1.186 0.067 3.586 1.187 5.026 2.467 5.751 5.568 13.598 8.999 22.248 8.999 4.566 0 8.908-0.956 12.838-2.679 0.749-0.25 1.849-0.441 2.994-0.441s2.245 0.191 3.271 0.543c3.449 1.259 6.809 3.659 10.329 4.939 3.631 1.689 7.882 2.674 12.363 2.674 12.104 0 22.529-7.187 27.24-17.526 7.436-13.262 12.357-28.65 13.806-45.035 1.311-11.633 2.271-22.833 3.711-34.033 0.895-9.113 2.136-17.138 3.781-25.015 1.499-6.185 4.379-13.705 6.939-21.865l-119.36-54.4c-7.52 20.8-25.44 27.84-44.48 33.92-21.853 7.928-47.080 12.75-73.36 13.276l-5.2 0.004c-16 1.28-18.080 2.88-20.48 16-0.731 2.18-1.153 4.69-1.153 7.299 0 9.615 5.731 17.892 13.963 21.601 7.48 3.476 16.064 5.468 25.113 5.468 3.388 0 6.711-0.279 9.948-0.816 6.849-0.752 14.209-1.072 23.329-1.712l-4.48 9.76c-14.88 32-29.92 65.28-44.64 97.92-1.764 3.475-2.797 7.577-2.797 11.92 0 14.8 11.997 26.797 26.797 26.797 10.456 0 19.514-5.989 23.93-14.724 8.23-17.753 16.070-35.673 24.39-53.433z" />
<glyph unicode="&#xe91e;" d="M765.6 19.52l-5.92 16c-4.48 12.64-14.72 17.92-34.24 24.16-20.368 7.358-43.88 11.881-68.367 12.475l-6.353 0.005c-20.64 1.6-31.040 6.4-35.36 28.64-0.9 3.145-1.418 6.757-1.418 10.49 0 15.841 9.32 29.505 22.775 35.808 9.38 4.53 20.118 7.118 31.46 7.118 2.869 0 5.699-0.166 8.482-0.488l-6.099 12.832q-16 35.2-32 70.4c-2.948 5.833-4.675 12.715-4.675 20s1.727 14.167 4.793 20.259c6.014 10.955 16.883 18.923 29.724 20.989 2.234 0.362 4.535 0.551 6.879 0.551 17.107 0 31.866-10.055 38.688-24.578 5.87-12.741 11.63-25.381 17.39-37.861l1.76-3.68c7.39 5.093 16.536 8.135 26.392 8.135 3.001 0 5.936-0.282 8.78-0.821 7.793 6.455 18.141 10.327 29.395 10.327 5.406 0 10.603-0.894 15.451-2.541l1.262 0.9c2.089 1.16 4.57 2.293 7.14 3.238 5.365 2.143 11.148 3.316 17.205 3.316 18.020 0 33.616-10.38 41.135-25.487 8.649-15.117 14.369-32.622 16.083-51.285l1.477-13.461c0-6.88 1.44-13.76 2.24-20.64v-2.4c0.793-7.599 1.864-14.252 3.267-20.782 0.893-3.538 2.493-8.338 4.093-13.138l6.72-21.12zM657.92 104.48c27.847-0.566 54.334-5.62 79.017-14.463 17.056-3.794 33.039-13.844 44.72-27.651l92.744 42.114c-1.12 3.68-2.24 7.36-3.040 11.2-1.385 6.219-2.625 14.021-3.442 21.948l-0.078 3.172c-0.8 7.040-1.6 14.080-2.4 21.12l-1.44 12.48c-1.134 14.47-5.266 27.753-11.774 39.541-1.744 5.211-7.087 9.236-13.37 9.236-2.512 0-4.874-0.643-6.93-1.774l-2.965-1.402c-1.995-1.141-4.366-2.27-6.822-3.23-2.997-1.099-6.022-1.659-9.178-1.659s-6.181 0.561-8.981 1.588c-1.859 0.954-4.262 1.547-6.803 1.547-4.632 0-8.805-1.969-11.727-5.115-3.944-3.804-9.306-6.141-15.214-6.141-1.7 0-3.354 0.193-4.943 0.56-8.012 2.211-14.892 1.411-23.852-10.429l-16-21.12-21.92 48c-5.6 12.48-11.36 24.96-17.12 37.44-1.668 3.768-5.375 6.349-9.684 6.349-0.535 0-1.060-0.040-1.574-0.116-3.015-0.438-5.574-2.309-6.957-4.902-0.903-1.776-1.417-3.813-1.417-5.971s0.514-4.195 1.427-5.996q15.965-35.124 31.965-70.164l28.32-61.92-34.88 2.4c-5.92 0-11.040 0-16 1.28-2.363 0.452-5.081 0.71-7.859 0.71-6.422 0-12.521-1.381-18.017-3.862-3.244-1.648-5.644-2.768-4.044-11.568v-2.24h5.6zM764.32 237.12v0zM816 246.24v0zM811.36 246.24v0z" />
<glyph unicode="&#xe91f;" d="M919.84 39.36l-14.72 33.28c-1.459 3.329-4.725 5.612-8.524 5.612-1.375 0-2.68-0.299-3.854-0.836l-105.062-46.216c-3.329-1.459-5.612-4.725-5.612-8.524 0-1.375 0.299-2.68 0.836-3.854l14.696-33.222c1.459-3.329 4.725-5.612 8.524-5.612 1.375 0 2.68 0.299 3.854 0.836l105.062 46.216c3.329 1.459 5.612 4.725 5.612 8.524 0 1.375-0.299 2.68-0.836 3.854zM890.88 32c-7.953 0-14.4 6.447-14.4 14.4s6.447 14.4 14.4 14.4c7.953 0 14.4-6.447 14.4-14.4s-6.447-14.4-14.4-14.4z" />
<glyph unicode="&#xe920;" d="M728.48 206.56c6.363 10.562 17.771 17.517 30.802 17.517 3.68 0 7.23-0.555 10.572-1.585 1.186 0.067 3.586 1.187 5.026 2.467 5.751 5.568 13.598 8.999 22.248 8.999 4.566 0 8.908-0.956 12.838-2.679 0.749-0.25 1.849-0.441 2.994-0.441s2.245 0.191 3.271 0.543c3.449 1.259 6.809 3.659 10.329 4.939 3.631 1.689 7.882 2.674 12.363 2.674 12.104 0 22.529-7.187 27.24-17.526 7.436-13.262 12.357-28.65 13.806-45.035 1.311-11.633 2.271-22.833 3.711-34.033 0.895-9.113 2.136-17.138 3.781-25.015 1.499-6.185 4.379-13.705 6.939-21.865l-119.36-54.4c-7.52 20.8-25.44 27.84-44.48 33.92-21.853 7.928-47.080 12.75-73.36 13.276l-5.2 0.004c-16 1.28-18.080 2.88-20.48 16-0.731 2.18-1.153 4.69-1.153 7.299 0 9.615 5.731 17.892 13.963 21.601 7.48 3.476 16.064 5.468 25.113 5.468 3.388 0 6.711-0.279 9.948-0.816 6.849-0.752 14.209-1.072 23.329-1.712l-4.48 9.76c-14.88 32-29.92 65.28-44.64 97.92-1.764 3.475-2.797 7.577-2.797 11.92 0 14.8 11.997 26.797 26.797 26.797 10.456 0 19.514-5.989 23.93-14.724 8.23-17.753 16.070-35.673 24.39-53.433z" />
<glyph unicode="&#xe921;" glyph-name="THRep" data-tags="IconosTHMesa de trabajo 6 copia" d="M192.8 140.16h-112c-26.72 0.16-32.8 6.88-32.8 34.24q0 284.64 0 569.28c0 29.12 7.36 36.16 37.12 36.32h99.52c3.2 33.92 6.56 66.56 9.12 99.2 2.24 29.76 8.32 36.32 38.56 33.92 89.28-6.88 178.72-14.56 268-22.080l226.72-19.2c8.32 0 16-1.12 24.64-2.24 14.074-0.311 25.365-11.794 25.365-25.914 0-2.16-0.264-4.258-0.762-6.264-1.403-18.222-3.003-36.622-4.763-57.902 20.16 0 37.92 0 55.52 0 25.76 0 33.6-7.68 34.080-32.96s0-53.44 0-82.4c16 1.44 29.12 2.56 42.080 3.52 21.92 1.44 32.96-7.040 34.56-28.48q10.88-146.4 21.12-292.96 8.96-124.8 17.44-249.76c2.080-30.56-5.12-37.44-35.52-39.68l-444.8-31.84q-129.92-9.44-260-17.92c-26.72-1.76-33.28 4.48-35.2 30.56-2.24 33.12-4.96 66.080-8 102.56zM96.8 190.72h712.8v536.96h-712zM248.16 56.96l676.96 49.44-36.16 507.52c-26.88 4.16-28.48 3.2-28.48-20.96q0-207.040 0-414.24c0-33.28-5.28-38.56-38.24-38.56h-579.040zM232.96 780h460.16c29.44 0 29.6 0 30.080 29.6-0.223 4.821-0.738 9.333-1.534 13.748l-479.906 39.532zM328.48 446.56c33.76 14.56 64 27.36 92.96 39.84 24.48 10.4 27.84 8.64 34.24-16 3.91-12.47 6.162-26.81 6.162-41.675 0-79.529-64.471-144-144-144-77.867 0-141.299 61.805-143.916 139.035-8.486 75.76 56.474 149.36 135.514 153.68 30.88 1.76 34.72-2.24 32-33.28s-8.48-62.24-12.96-97.6zM488.16 558.72l-112-48c3.68 32 6.56 57.44 9.76 83.52 0 1.28 0 2.72 0.96 4 6.080 37.12 11.2 39.52 46.24 21.76 25.296-12.979 44.711-34.417 54.777-60.504zM641.76 570.24h68c11.52 0 20.8-3.52 20.96-16.96s-8.96-19.2-21.44-19.36c-45.28 0-90.72-0.96-136 0-10.005 2.052-18.046 8.929-21.69 18.040-2.31 13.16 9.21 17.8 22.010 17.64 22.72 0 45.28 0 68 0zM641.28 346.24c22.72 0 45.44 0 68.16 0 11.68 0 20.8-2.88 21.44-16s-7.84-19.68-20.8-19.68c-46.080 0-92.16-0.8-138.24 0-9.407 2.031-16.928 8.6-20.256 17.25-2.144 12.99 8.576 18.43 21.536 18.27 22.72 0 45.44 0.32 68.16 0.16zM641.76 422.72h-68c-12.48 0-22.56 5.12-22.72 18.4s10.080 17.92 22.56 17.92h136c11.36 0 20.96-3.2 21.44-16s-8.96-19.2-21.28-19.52c-22.72-1.12-45.28-0.8-68-0.8z" />
<glyph unicode="&#xe922;" glyph-name="THFd" data-tags="IconosTHMesa de trabajo 6" d="M734.88 62.88c-93.12 18.88-172.48 16-240.96-37.92-65.28 48-140.64 54.56-221.92 41.76-5.12 23.36-6.4 40.96 20 58.88 31.405 22.653 51.608 59.14 51.608 100.346 0 39.665-18.72 74.957-47.808 97.524-16.75 9.728-27.655 27.255-27.655 47.329 0 2.966 0.238 5.876 0.696 8.712 0.283 5.543 0.468 12.394 0.468 19.289s-0.185 13.746-0.55 20.549c98.441 10.411 171.721-23.349 231.401-94.549 50.72 83.2 131.52 98.88 227.2 90.4 0-22.72 0.96-44.64 0-66.4-2.014-7.369-6.586-13.451-12.682-17.369-75.318-55.431-74.358-154.951-0.118-212.231 11.68-9.92 11.84-32.64 20.32-56.32zM661.12 729.6c-3.23-89.888-76.878-161.531-167.258-161.531-89.423 0-162.466 70.134-167.124 158.397 0.074 91.097 73.607 164.575 164.302 164.575 1.584 0.055 3.444 0.086 5.313 0.086 89.865 0 162.931-71.929 164.765-161.355zM842.72 331.84l-67.2 21.6v103.84c-102.080 5.6-200.8 12.16-277.28-60.48-117.76 67.68-176 80-276.8 58.24v-101.44l-67.84-24.96c3.84 50.080-11.040 100.8 16 148.48 24.8 44.32 66.24 66.88 122.24 66.88q205.6 0 411.040 0c77.92 0 136.48-49.76 139.52-118.88 1.6-30.56 0.32-61.12 0.32-93.28zM885.44 222.72c0-55.228-44.772-100-100-100s-100 44.772-100 100c0 55.228 44.772 100 100 100s100-44.772 100-100zM312 222.72c0-55.228-44.772-100-100-100s-100 44.772-100 100c0 55.228 44.772 100 100 100s100-44.772 100-100z" />
<glyph unicode="&#xe923;" glyph-name="THBso" data-tags="IconosTHMesa de trabajo 7" d="M992 312.64c-12.085-12.692-24.99-24.33-38.732-34.936-82.388-53.704-166.068-102.504-260.628-131.464-41.6-12.8-80-5.28-119.84-0.8-61.283 7.405-116.744 26.918-165.775 56.107-9.066 5.508-22.331 9.396-36.504 9.396-7.453 0-14.654-1.075-21.458-3.078-21.704-5.625-44.584-8.505-69.064-12.985 0 59.36 0 116.8 0 174.080 0 5.12 8.16 11.68 14.080 14.72 96 48 194.88 49.92 284.16-32 23.752-21.51 54.204-36.026 87.875-40.085 17.083-2.316 31.327-5.281 45.212-9.112 6.542-1.14 14.256-5.409 20.188-11.437 4.256-6.031 6.799-13.525 6.799-21.613 0-1.917-0.143-3.8-0.418-5.641-1.094-5.072-12.614-10.832-19.974-11.472-81.92-8.32-161.12-1.92-230.72 48.8-0.8 0-2.24 0-5.92 1.12 11.2-28.16 26.56-51.52 54.4-60.96 24.141-8.849 52.302-15.549 81.485-18.881 16.536-1.038 33.867-1.539 51.315-1.539s34.78 0.501 51.981 1.489c-1.737-0.139-0.981-0.156-0.221-0.156 27.747 0 50.24 22.493 50.24 50.24 0 19.363-10.954 36.167-27.002 44.555-5.877 3.492-11.957 6.372-22.197 11.812 32 14.56 59.2 29.12 88.16 39.52 20.8 7.52 29.92 1.76 41.92-16 40.16 12.8 48 11.36 59.84-12.16 27.52 9.76 57.28 28.32 80-8.8zM32 398.88c44.48 5.44 88.96 10.72 133.44 16q29.76 3.68 59.2 8.48c12 1.92 16.96-1.92 16.96-14.72q0-144 0-286.56c0-14.88-8.64-19.040-20.16-22.4l-189.44-57.12q0 178.24 0 356.32zM121.44 196.48c-16.53-0.335-29.802-13.815-29.802-30.394 0-0.565 0.015-1.126 0.046-1.683 0.311-16.472 13.801-29.768 30.397-29.768 16.792 0 30.405 13.613 30.405 30.405 0 0.197-0.002 0.393-0.006 0.589 0.002 0.067 0.002 0.181 0.002 0.294 0 16.878-13.682 30.56-30.56 30.56-0.169 0-0.338-0.001-0.507-0.004zM657.6 761.92l7.040 11.040c26.674 42.184 73.070 69.789 125.913 69.789 82.003 0 148.48-66.477 148.48-148.48 0-3.388-0.113-6.749-0.337-10.080-4.974-46.806-23.098-89.076-50.587-123.55-53.681-72.13-119.959-132.287-195.929-177.972-11.768-8.075-22.688-11.896-34.501-11.896s-22.733 3.821-31.592 10.295c-86.728 53.974-162.568 119.254-216.808 207.894-18.516 28.052-30.468 61.93-32.926 98.411-0.111 2.414-0.154 4.507-0.154 6.611 0 82.092 66.548 148.64 148.64 148.64 52.683 0 98.964-27.408 125.363-68.744z" />
</font>
</defs>
</svg>
