<svg id="Capa_1" data-name="Capa 1" xmlns="http://www.w3.org/2000/svg" viewBox="0 0 95 95"><defs><style>.cls-1{fill:#b0c700;}.cls-2{fill:#00632e;}</style></defs><title>gestionamosMesa de trabajo 8 copia 6</title><path class="cls-1" d="M19.29,61.74l-.13-3.2c6.5-.27,11.34-2.3,14-5.87a10.34,10.34,0,0,0,2-5.09c0-9.57-11-14.07-11.12-14.12l1.18-3a26,26,0,0,1,6.5,4c4.34,3.66,6.63,8.2,6.63,13.13C38.37,47.83,37.69,61,19.29,61.74Z"/><path class="cls-2" d="M46.42,43.14a8.51,8.51,0,0,1-1.15-.07c-4.9-.91-8.95-4-11.76-8.92A26.06,26.06,0,0,1,30.75,27l3.14-.62c0,.12,2.45,11.76,11.92,13.51.35,0,10.22,1.2,13.64-13.77l3.12.71c-2.11,9.25-6.62,13.18-10,14.84A14.06,14.06,0,0,1,46.42,43.14Z"/><path class="cls-1" d="M43.4,85.45,40.54,84c.19-.38,4.47-9.33-1.46-16.61-.23-.26-6.73-7.37-17.06.25l-1.9-2.57c10.21-7.54,18.47-3.12,21.41.26C48.8,74.3,43.63,85,43.4,85.45Z"/><path class="cls-2" d="M55.06,85.39a25.55,25.55,0,0,1-7.19-19.47s3.07-8.78,11.64-6.58a15.44,15.44,0,0,1-5.85-16.45A12.94,12.94,0,0,1,46.38,46a8.46,8.46,0,0,1-6.77-3.11s2.75,11.35-6.35,16.45c0,0,14.18.44,11,12.72a39.43,39.43,0,0,1-5.92,13.33Z"/><path class="cls-2" d="M73.39,61.65c-9.48-.38-14.16-3.92-16.42-6.82a12.36,12.36,0,0,1-2.67-6.55c0-4.74,2.29-9.06,6.63-12.55a26.36,26.36,0,0,1,6.5-3.83l1.18,2.83L68,33.33l.59,1.41c-.11,0-11.12,4.33-11.12,13.49,0,.34.68,9.77,16,10.38Z"/><path class="cls-1" d="M46.37,43.14a8.55,8.55,0,0,1-1.09-.07c-4.91-.91-9-4-11.77-8.92A26.06,26.06,0,0,1,30.75,27l3.14-.62c0,.12,2.45,11.75,11.9,13.51,0,0,.24,0,.6,0Z"/><path class="cls-2" d="M20.71,19.54c1.25,3.66,3,7.12,7.65,7.88a6.1,6.1,0,0,1-3,.8c-3.88.07-5.9-1.27-7.44-4.52-1.46-3.09-3-6.14-4.52-9.21l-.59-1.2c1.24.08,2.38.12,3.51.22a23.91,23.91,0,0,1,6,1.27A9,9,0,0,1,27.79,20a22.25,22.25,0,0,1,1.53,6.5,9.27,9.27,0,0,1-5.11-2.67C22.92,22.44,21.8,20.89,20.71,19.54Z"/><path class="cls-2" d="M33.86,16.71c-1.2,2.38-2.06,4.91-.19,7.56a4.2,4.2,0,0,1-1.84-1.09c-1.9-1.88-2.22-3.51-1.36-5.84S32,12.9,32.82,10.68l.31-.87c.56.65,1.09,1.23,1.58,1.83A16.46,16.46,0,0,1,37,15.19,6.16,6.16,0,0,1,37,20.41a15.32,15.32,0,0,1-2.46,3.89,6.38,6.38,0,0,1-1.15-3.8C33.49,19.19,33.72,17.89,33.86,16.71Z"/><path class="cls-2" d="M14.64,32.44c2.29-1.37,4.75-2.4,7.53-.73A4.2,4.2,0,0,0,20.94,30c-2-1.76-3.66-2-5.92-.94S10.7,30.9,8.55,31.83l-.84.37c.69.51,1.3,1,1.94,1.45a16.46,16.46,0,0,0,3.7,2,6.16,6.16,0,0,0,5.21-.29,15.32,15.32,0,0,0,3.7-2.73,6.38,6.38,0,0,0-3.87-.87C17.09,31.9,15.81,32.21,14.64,32.44Z"/><path class="cls-1" d="M74.15,18.55C70.62,20.13,67.33,22.2,67,26.9A6.1,6.1,0,0,1,65.93,24c-.42-3.86.72-6,3.82-7.83,2.94-1.74,5.83-3.56,8.75-5.35l1.14-.7c0,1.24.1,2.38.11,3.52A23.91,23.91,0,0,1,79,19.68a9,9,0,0,1-4.69,6A22.25,22.25,0,0,1,68,27.76a9.27,9.27,0,0,1,2.18-5.33C71.46,21,72.9,19.76,74.15,18.55Z"/><path class="cls-1" d="M77.61,30.74c-2.48-1-5.08-1.59-7.55.51A4.2,4.2,0,0,1,71,29.32c1.69-2.07,3.29-2.54,5.69-1.9s4.56,1.15,6.85,1.72l.89.23c-.59.62-1.12,1.2-1.68,1.75a16.46,16.46,0,0,1-3.32,2.57,6.16,6.16,0,0,1-5.19.57,15.32,15.32,0,0,1-4.1-2.09,6.38,6.38,0,0,1,3.68-1.5C75.1,30.61,76.42,30.71,77.61,30.74Z"/><path class="cls-1" d="M60.58,16.29c1.57,2.15,2.83,4.51,1.42,7.43a4.2,4.2,0,0,0,1.64-1.38c1.57-2.16,1.61-3.83.39-6s-2.28-4.12-3.41-6.18l-.45-.81c-.45.73-.87,1.39-1.26,2.07a16.46,16.46,0,0,0-1.64,3.87A6.16,6.16,0,0,0,58,20.46a15.32,15.32,0,0,0,3.06,3.43A6.38,6.38,0,0,0,61.62,20C61.34,18.67,60.91,17.43,60.58,16.29Z"/><path class="cls-2" d="M46.72,28c-.84,2.2-1.36,4.49.52,6.65a3.7,3.7,0,0,1-1.71-.79,4.25,4.25,0,0,1-1.72-5c.51-2,1-4,1.46-6.05l.19-.79c.55.52,1.06,1,1.55,1.46a14.51,14.51,0,0,1,2.29,2.91A5.43,5.43,0,0,1,49.84,31,13.51,13.51,0,0,1,48,34.6a5.63,5.63,0,0,1-1.35-3.23C46.62,30.22,46.7,29.06,46.72,28Z"/><path class="cls-2" d="M53.43,31.75c-1.48.65-2.86,1.5-3,3.46A2.55,2.55,0,0,1,50,34a2.93,2.93,0,0,1,1.63-3.26c1.24-.72,2.45-1.47,3.68-2.2l.48-.29c0,.52,0,1,0,1.47a10,10,0,0,1-.32,2.53,3.74,3.74,0,0,1-2,2.47,9.3,9.3,0,0,1-2.66.86,3.87,3.87,0,0,1,.93-2.22C52.3,32.77,52.91,32.25,53.43,31.75Z"/><path class="cls-2" d="M39.92,32.86c1.6.25,3.15.72,3.8,2.58a2.55,2.55,0,0,0,.11-1.29,2.93,2.93,0,0,0-2.4-2.74c-1.38-.38-2.75-.79-4.12-1.19l-.54-.15c.12.51.22,1,.35,1.43a10,10,0,0,0,1,2.36,3.74,3.74,0,0,0,2.55,1.89,9.3,9.3,0,0,0,2.79.16A3.87,3.87,0,0,0,41.94,34C41.27,33.56,40.55,33.21,39.92,32.86Z"/><path class="cls-1" d="M70.29,47.06c-2.2-.84-4.49-1.36-6.65.52a3.7,3.7,0,0,1,.79-1.71,4.25,4.25,0,0,1,5-1.72c2,.51,4,1,6.05,1.46l.79.19c-.52.55-1,1.06-1.46,1.55a14.51,14.51,0,0,1-2.91,2.29,5.43,5.43,0,0,1-4.57.55,13.51,13.51,0,0,1-3.63-1.81A5.63,5.63,0,0,1,66.92,47C68.08,47,69.24,47,70.29,47.06Z"/><path class="cls-1" d="M66.54,53.78c-.65-1.48-1.5-2.86-3.46-3a2.55,2.55,0,0,1,1.22-.44,2.93,2.93,0,0,1,3.26,1.63c.72,1.24,1.47,2.45,2.2,3.68l.29.48c-.52,0-1,0-1.47,0A10,10,0,0,1,66,55.81a3.74,3.74,0,0,1-2.47-2,9.3,9.3,0,0,1-.86-2.66,3.87,3.87,0,0,1,2.22.93C65.52,52.65,66,53.25,66.54,53.78Z"/><path class="cls-1" d="M65.43,40.26c-.25,1.6-.72,3.15-2.58,3.8a2.55,2.55,0,0,0,1.29.11,2.93,2.93,0,0,0,2.74-2.4c.38-1.38.79-2.75,1.19-4.12l.15-.54c-.51.12-1,.22-1.43.35a10,10,0,0,0-2.36,1A3.74,3.74,0,0,0,62.55,41a9.3,9.3,0,0,0-.16,2.79,3.87,3.87,0,0,0,1.91-1.47C64.73,41.61,65.08,40.89,65.43,40.26Z"/><path class="cls-1" d="M23.67,45.63c2.2.84,4.49,1.36,6.65-.52a3.7,3.7,0,0,1-.79,1.71,4.25,4.25,0,0,1-5,1.72c-2-.51-4-1-6.05-1.46l-.79-.19c.52-.55,1-1.06,1.46-1.55a14.51,14.51,0,0,1,2.91-2.29,5.43,5.43,0,0,1,4.57-.55,13.51,13.51,0,0,1,3.63,1.81A5.63,5.63,0,0,1,27,45.66C25.88,45.72,24.72,45.65,23.67,45.63Z"/><path class="cls-1" d="M27.41,38.91c.65,1.48,1.5,2.86,3.46,3a2.55,2.55,0,0,1-1.22.44,2.93,2.93,0,0,1-3.26-1.63c-.72-1.24-1.47-2.45-2.2-3.68l-.29-.48c.52,0,1,0,1.47,0a10,10,0,0,1,2.53.32,3.74,3.74,0,0,1,2.47,2,9.3,9.3,0,0,1,.86,2.66A3.87,3.87,0,0,1,29,40.58C28.43,40,27.91,39.44,27.41,38.91Z"/><path class="cls-1" d="M28.52,52.43c.25-1.6.72-3.15,2.58-3.8a2.55,2.55,0,0,0-1.29-.11,2.93,2.93,0,0,0-2.74,2.4c-.38,1.38-.79,2.75-1.19,4.12l-.15.54c.51-.12,1-.22,1.43-.35a10,10,0,0,0,2.36-1,3.74,3.74,0,0,0,1.89-2.55,9.3,9.3,0,0,0,.16-2.79,3.87,3.87,0,0,0-1.91,1.47C29.22,51.07,28.87,51.79,28.52,52.43Z"/><path class="cls-2" d="M85.22,67.3c-2.66-2.81-5.69-5.23-10.23-4a6.1,6.1,0,0,1,2.4-2c3.5-1.67,5.9-1.3,8.65,1s5.29,4.33,7.94,6.49l1,.85c-1.16.45-2.21.88-3.28,1.26a23.91,23.91,0,0,1-6,1.32,9,9,0,0,1-7.17-2.46,22.25,22.25,0,0,1-4.1-5.28,9.27,9.27,0,0,1,5.75.3C82,65.58,83.67,66.52,85.22,67.3Z"/><path class="cls-2" d="M73.86,74.33c.1-2.66-.17-5.32-3-7a4.2,4.2,0,0,1,2.13.23c2.51.91,3.48,2.27,3.67,4.74s.42,4.69.63,7l.08.92c-.78-.36-1.5-.66-2.2-1A16.46,16.46,0,0,1,71.68,77a6.16,6.16,0,0,1-2.25-4.71A15.32,15.32,0,0,1,70,67.73a6.38,6.38,0,0,1,2.63,3C73.16,71.92,73.5,73.2,73.86,74.33Z"/><path class="cls-2" d="M82.63,53.56c-1.51,2.19-3.32,4.16-6.54,3.8a4.2,4.2,0,0,0,1.84,1.09c2.56.77,4.15.26,5.78-1.61s3.14-3.51,4.71-5.26l.61-.69c-.84-.18-1.6-.36-2.37-.51a16.46,16.46,0,0,0-4.19-.27,6.16,6.16,0,0,0-4.62,2.43,15.32,15.32,0,0,0-2.23,4,6.38,6.38,0,0,0,3.88-.81C80.63,55.07,81.66,54.25,82.63,53.56Z"/><path class="cls-1" d="M8.1,66.67c3.43.42,6.9.36,9.31-3.08a5.44,5.44,0,0,1-.53,2.72c-1.46,3.14-3.32,4.25-6.54,4.22-3.05,0-6.11,0-9.16,0H0c.54-1,1-1.86,1.54-2.74a21.35,21.35,0,0,1,3.35-4.3,8,8,0,0,1,6.34-2.39A19.87,19.87,0,0,1,17,62.47a8.28,8.28,0,0,1-4.13,3.07C11.29,66,9.61,66.32,8.1,66.67Z"/><path class="cls-1" d="M11.19,55.13c1.45,1.89,3.15,3.56,6,3.1a3.75,3.75,0,0,1-1.59,1.05,4.3,4.3,0,0,1-5.23-1.18c-1.46-1.51-3-3-4.44-4.48L5.36,53c.74-.2,1.41-.4,2.09-.56A14.7,14.7,0,0,1,11.18,52a5.51,5.51,0,0,1,4.23,2,13.68,13.68,0,0,1,2.16,3.49,5.7,5.7,0,0,1-3.5-.55C13,56.39,12.09,55.7,11.19,55.13Z"/><path class="cls-1" d="M17.62,74.82c-.21-2.37-.08-4.75,2.35-6.33a3.75,3.75,0,0,0-1.89.3A4.3,4.3,0,0,0,15,73.18c-.05,2.1-.17,4.2-.25,6.3,0,.24,0,.49,0,.82.68-.35,1.31-.66,1.92-1a14.7,14.7,0,0,0,3-2.2,5.51,5.51,0,0,0,1.8-4.3,13.68,13.68,0,0,0-.76-4,5.7,5.7,0,0,0-2.21,2.77C18.14,72.64,17.89,73.79,17.62,74.82Z"/><path class="cls-2" d="M50.52,85.45C43,75.84,47.4,68.07,50.79,65.3c8.94-6.86,19.64-2,20.09-1.77l-1.42,2.7c-.38-.17-9.33-4.21-16.61,1.38-.26.22-7.37,6.34.25,16.06Z"/><path class="cls-1" d="M59,58.95v.28l.53.12S59.3,59.21,59,58.95Z"/><path class="cls-1" d="M38.34,85.39h8V46h0a8.46,8.46,0,0,1-6.77-3.11s2.75,11.35-6.35,16.45c0,0,14.18.44,11,12.72A39.43,39.43,0,0,1,38.34,85.39Z"/></svg>